<svg width="42" height="43" viewBox="0 0 42 43" fill="none" xmlns="http://www.w3.org/2000/svg">
<path d="M5.25031 14.7814C5.25012 13.2223 5.62846 11.6877 6.35131 10.3154C7.07415 8.94314 8.11883 7.77636 9.39138 6.92C10.6639 6.06363 12.1244 5.54454 13.6415 5.40942C15.1586 5.2743 16.6848 5.52737 18.0826 6.14589C19.4805 6.76441 20.7063 7.72897 21.6497 8.95281C22.5932 10.1767 23.2247 11.6214 23.4875 13.1571C23.7503 14.6928 23.6361 16.2713 23.1552 17.7506C22.6743 19.2299 21.8418 20.5637 20.7326 21.6319C22.8239 22.6714 24.6397 24.2117 26.0261 26.1223C27.4125 28.0329 28.3286 30.2575 28.6968 32.6076C28.7373 32.8691 28.7271 33.1363 28.6668 33.3937C28.6064 33.6512 28.4972 33.894 28.3452 34.1083C28.1932 34.3225 28.0015 34.504 27.781 34.6424C27.5605 34.7808 27.3156 34.8734 27.0601 34.9148C26.8047 34.9563 26.5438 34.9459 26.2923 34.8841C26.0408 34.8223 25.8036 34.7105 25.5944 34.5549C25.3851 34.3993 25.2078 34.203 25.0727 33.9772C24.9375 33.7515 24.8471 33.5007 24.8066 33.2392C24.4128 30.7138 23.1526 28.4148 21.2522 26.755C19.3518 25.0953 16.9357 24.1836 14.4378 24.1836C11.9399 24.1836 9.52379 25.0953 7.62339 26.755C5.72299 28.4148 4.46277 30.7138 4.06906 33.2392C4.02838 33.5007 3.93779 33.7515 3.80246 33.9771C3.66712 34.2028 3.4897 34.399 3.28032 34.5545C3.07093 34.7099 2.83369 34.8217 2.58213 34.8833C2.33057 34.9449 2.06962 34.9551 1.81418 34.9135C1.55874 34.8718 1.31382 34.7791 1.09339 34.6405C0.872965 34.502 0.681352 34.3203 0.529493 34.106C0.377634 33.8916 0.268504 33.6487 0.208333 33.3912C0.148162 33.1336 0.138129 32.8665 0.178805 32.6049C0.545708 30.255 1.46137 28.0306 2.84794 26.1206C4.23452 24.2107 6.05103 22.6717 8.14306 21.6346C7.22956 20.7549 6.50165 19.693 6.00415 18.5144C5.50665 17.3358 5.2501 16.0654 5.25031 14.7814ZM28.8753 10.7502C30.4005 10.7513 31.8925 11.2056 33.1704 12.0581C34.4482 12.9105 35.4569 14.1244 36.0739 15.5523C36.691 16.9803 36.8899 18.561 36.6465 20.1024C36.4031 21.6439 35.7279 23.0799 34.7028 24.2361C36.3015 25.0469 37.7219 26.1829 38.8773 27.5747C40.0327 28.9664 40.8989 30.5848 41.4228 32.3308C41.5269 32.6696 41.5415 33.0306 41.4652 33.3771C41.389 33.7235 41.2245 34.0432 40.9886 34.3036C40.7527 34.564 40.4537 34.7558 40.1219 34.8596C39.7902 34.9634 39.4375 34.9755 39.0997 34.8947C38.762 34.8147 38.4508 34.6449 38.1978 34.4023C37.9447 34.1597 37.7587 33.8531 37.6586 33.5133C37.1874 31.9555 36.3298 30.5494 35.1695 29.4321C34.0093 28.3148 32.5859 27.5246 31.0383 27.1386C30.6084 27.0323 30.226 26.781 29.9527 26.4251C29.6793 26.0692 29.531 25.6294 29.5316 25.1767V24.2307C29.5313 23.8554 29.6334 23.4875 29.8263 23.1685C30.0193 22.8494 30.2954 22.5918 30.6236 22.4247C31.4194 22.0209 32.0584 21.3535 32.437 20.5309C32.8156 19.7083 32.9114 18.7789 32.7089 17.8935C32.5064 17.0082 32.0174 16.2189 31.3215 15.6539C30.6255 15.089 29.7635 14.7815 28.8753 14.7814C28.3532 14.7814 27.8524 14.5691 27.4832 14.1911C27.114 13.8131 26.9066 13.3004 26.9066 12.7658C26.9066 12.2312 27.114 11.7185 27.4832 11.3405C27.8524 10.9625 28.3532 10.7502 28.8753 10.7502ZM14.4378 9.40643C13.7387 9.39025 13.0434 9.51723 12.3929 9.77992C11.7423 10.0426 11.1496 10.4357 10.6495 10.9362C10.1494 11.4366 9.75195 12.0343 9.48056 12.6942C9.20918 13.354 9.06929 14.0627 9.06911 14.7787C9.06894 15.4947 9.20848 16.2035 9.47954 16.8635C9.75061 17.5235 10.1477 18.1214 10.6476 18.6221C11.1475 19.1228 11.74 19.5162 12.3904 19.7792C13.0408 20.0422 13.736 20.1696 14.4352 20.1537C15.8069 20.1227 17.1122 19.5431 18.0718 18.539C19.0313 17.5349 19.5688 16.1861 19.5691 14.7814C19.5695 13.3767 19.0327 12.0276 18.0736 11.023C17.1146 10.0185 15.8095 9.43819 14.4378 9.40643Z" fill="#212121"/>
</svg>
