<svg width="47" height="46" viewBox="0 0 47 46" fill="none" xmlns="http://www.w3.org/2000/svg">
<path fill-rule="evenodd" clip-rule="evenodd" d="M11.2936 13.7208L22.4465 7.85495C23.0876 7.51869 23.7893 7.34414 24.5 7.34414C25.2107 7.34414 25.9124 7.51869 26.5535 7.85495L37.7064 13.7208C38.1041 13.9313 38.4397 14.2603 38.6748 14.6702C38.9099 15.08 39.035 15.5541 39.0357 16.0382V17.4808C39.0356 21.6363 38.0815 25.7249 36.2613 29.3702C34.4412 33.0154 31.8135 36.1001 28.6202 38.3402L26.0144 40.168C25.5626 40.4862 25.037 40.6553 24.5 40.6553C23.963 40.6553 23.4374 40.4862 22.9856 40.168L20.3798 38.3431C17.1862 36.1027 14.5582 33.0176 12.738 29.3718C10.9179 25.726 9.964 21.6368 9.96429 17.4808V16.0382C9.96429 15.0504 10.4823 14.1496 11.2936 13.7208ZM20.7286 3.93857L9.57843 9.80445C8.50725 10.3692 7.60319 11.2538 6.97018 12.3565C6.33717 13.4592 6.00089 14.7354 6 16.0382V17.4808C5.99978 22.3655 7.12095 27.1718 9.26024 31.4569C11.3995 35.742 14.4882 39.3683 18.2417 42.0016L20.8476 43.8266C21.9375 44.5927 23.2052 45 24.5 45C25.7948 45 27.0625 44.5927 28.1524 43.8266L30.7583 42.0016C34.5118 39.3683 37.6005 35.742 39.7398 31.4569C41.8791 27.1718 43.0002 22.3655 43 17.4808V16.0382C43 13.379 41.6099 10.9545 39.4216 9.80445L28.2687 3.93857C27.0923 3.32073 25.8045 3 24.5 3C23.1955 3 21.905 3.32073 20.7286 3.93857ZM25.7421 28.9808C25.5474 29.1797 25.3912 29.4196 25.2829 29.6861C25.1745 29.9526 25.1163 30.2403 25.1116 30.532C25.1069 30.8237 25.1558 31.1134 25.2555 31.384C25.3552 31.6545 25.5036 31.9002 25.6918 32.1065C25.88 32.3128 26.1043 32.4755 26.3511 32.5847C26.5979 32.694 26.8622 32.7477 27.1284 32.7425C27.3945 32.7374 27.657 32.6735 27.9001 32.5548C28.1433 32.436 28.3621 32.2648 28.5436 32.0514C30.0632 30.3886 31.4983 28.0017 32.5501 25.693C33.5703 23.4568 34.4107 20.9047 34.4107 18.9292C34.4107 18.353 34.2019 17.8004 33.8302 17.3929C33.4584 16.9855 32.9543 16.7566 32.4286 16.7566C31.9029 16.7566 31.3987 16.9855 31.027 17.3929C30.6553 17.8004 30.4464 18.353 30.4464 18.9292C30.4464 19.8503 29.9654 21.6434 29.0034 23.7522C28.0731 25.7886 26.8654 27.7468 25.7421 28.9808Z" fill="#212121"/>
</svg>
