<svg width="43" height="43" viewBox="0 0 43 43" fill="none" xmlns="http://www.w3.org/2000/svg">
<g clip-path="url(#clip0_58_47)">
<path d="M29.3465 23.4726C29.6462 23.1755 30.0272 22.9738 30.4415 22.8931C30.8557 22.8124 31.2846 22.8563 31.6739 23.0191C32.0632 23.182 32.3956 23.4566 32.629 23.8082C32.8624 24.1598 32.9863 24.5727 32.9852 24.9947C32.9847 25.2745 32.9286 25.5514 32.8204 25.8094C32.7123 26.0674 32.554 26.3015 32.3549 26.498L29.3465 23.4726ZM29.3465 23.4726L29.4521 23.5791C29.4522 23.579 29.4523 23.5789 29.4524 23.5788L29.4526 23.5786L29.3465 23.4726ZM8.76767 29.5261L17.7734 32.4834C17.2724 33.1688 17.0007 33.9974 17.0007 34.8501L17.0007 34.8505C17.004 35.9086 17.4257 36.9224 18.1739 37.6706C18.9221 38.4188 19.9359 38.8405 20.994 38.8438L20.9949 38.8438C22.054 38.8409 23.069 38.4192 23.8184 37.6707L23.8185 37.6707L33.6755 27.8153L33.6756 27.8153C34.424 27.0664 34.8445 26.0509 34.8445 24.9921C34.8445 23.9333 34.424 22.9179 33.6756 22.169L33.5695 22.0628L33.5636 22.0687C32.8694 21.4501 31.9833 21.0862 31.0516 21.0401C30.1416 20.9951 29.2449 21.256 28.503 21.778L25.5258 12.7662C25.5258 12.7661 25.5257 12.7659 25.5257 12.7658C25.2635 11.9593 24.7731 11.2461 24.114 10.7125C23.4548 10.1788 22.6551 9.84772 21.8116 9.75924C21.8115 9.75923 21.8114 9.75922 21.8113 9.75921L7.15261 8.17052L7.15209 8.17046C6.7499 8.12828 6.34337 8.17656 5.96225 8.31176C5.58113 8.44696 5.23506 8.66567 4.94937 8.95188C4.66368 9.23809 4.4456 9.58456 4.31109 9.96593C4.17658 10.3473 4.12904 10.7539 4.17196 11.156L4.17198 11.1563L5.76068 25.8115C5.76069 25.8116 5.7607 25.8117 5.76071 25.8118C5.84919 26.6553 6.18029 27.455 6.71392 28.1142C7.24754 28.7734 7.96078 29.2638 8.76732 29.5259C8.76744 29.526 8.76755 29.526 8.76767 29.5261ZM7.68485 10.2583L21.5952 11.7505L21.5959 11.7506C22.056 11.7975 22.4924 11.9775 22.8518 12.2687C23.2111 12.5598 23.4778 12.9494 23.6191 13.3897L23.6195 13.3908L26.8894 23.3139L19.3154 30.8879L9.39071 27.6181C9.39067 27.6181 9.39063 27.618 9.3906 27.618C8.9518 27.4729 8.56393 27.2047 8.27312 26.8455C7.98234 26.4863 7.80085 26.0512 7.75024 25.5918C7.75023 25.5917 7.75022 25.5916 7.75021 25.5916L6.25809 11.6817L12.7435 18.1671C12.6386 18.5255 12.6271 18.9054 12.7111 19.2703C12.8021 19.6656 13.0014 20.0277 13.2866 20.316C13.484 20.5217 13.7204 20.6858 13.9819 20.799C14.2439 20.9123 14.5258 20.9722 14.8112 20.9751C15.0966 20.9781 15.3797 20.924 15.6439 20.816C15.9081 20.708 16.1481 20.5484 16.3498 20.3465C16.5515 20.1445 16.7109 19.9044 16.8185 19.64C16.9261 19.3757 16.9799 19.0925 16.9766 18.8071C16.9734 18.5217 16.9131 18.2399 16.7995 17.9781C16.6861 17.7169 16.5219 17.481 16.3164 17.2841C16.033 16.9968 15.6728 16.7974 15.2789 16.7098C14.9159 16.629 14.5386 16.6463 14.1855 16.759L7.68485 10.2583ZM19.5803 33.4543C19.5805 33.4541 19.5807 33.4539 19.5808 33.4538L19.474 33.3484L19.5801 33.4545L19.5803 33.4543ZM19.5808 36.2498C19.5803 36.2493 19.5799 36.2488 19.5794 36.2483C19.5789 36.2479 19.5784 36.2474 19.5779 36.2469L19.474 36.3551L19.5808 36.2498ZM22.3922 36.2469C22.3918 36.2473 22.3915 36.2476 22.3911 36.2479L22.39 36.249L22.4961 36.3551L22.3922 36.2469Z" fill="#212121" stroke="#212121" stroke-width="0.3"/>
</g>
<defs>
<clipPath id="clip0_58_47">
<rect width="43" height="43" fill="white"/>
</clipPath>
</defs>
</svg>
