<svg width="55" height="55" viewBox="0 0 55 55" fill="none" xmlns="http://www.w3.org/2000/svg">
<rect width="55" height="55" rx="12" fill="#50B498"/>
<path d="M27.4368 36.2423L20.0528 33.8455C20.0528 33.8455 20.0527 33.8455 20.0527 33.8454C19.3835 33.6304 18.7914 33.2282 18.3483 32.6871C17.9052 32.1461 17.6302 31.4896 17.5566 30.7969C17.5566 30.7968 17.5566 30.7967 17.5566 30.7966L16.2476 18.8605L16.2476 18.8603C16.2117 18.5284 16.2514 18.1928 16.3637 17.8781C16.476 17.5634 16.658 17.2776 16.8963 17.0417C17.1345 16.8057 17.423 16.6256 17.7406 16.5142C18.0582 16.4028 18.3969 16.3631 18.7319 16.3978L18.7324 16.3979L30.8105 17.6918C30.8106 17.6918 30.8107 17.6918 30.8108 17.6918C31.5105 17.7644 32.1741 18.0359 32.7213 18.4737C33.2683 18.9115 33.6755 19.4968 33.8934 20.1589L33.8933 20.1588L33.751 20.2063L33.8935 20.1595L27.4368 36.2423ZM27.4368 36.2423C27.0354 36.799 26.8178 37.4674 26.8178 38.1551L26.8178 38.1555C26.8205 39.0252 27.1713 39.8581 27.7928 40.4726C28.4144 41.0869 29.2562 41.433 30.1345 41.4356L30.1353 41.4356C31.0144 41.4333 31.8573 41.0873 32.4798 40.4727L32.4799 40.4726L40.6017 32.4458L40.6018 32.4458C41.2236 31.8307 41.5732 30.9964 41.5732 30.1261C41.5732 29.2559 41.2236 28.4215 40.6018 27.8065L40.4963 27.7022L40.4904 27.708L27.4368 36.2423ZM37.0167 28.8885C37.2636 28.6465 37.5776 28.4823 37.9189 28.4166C38.2602 28.3508 38.6136 28.3866 38.9344 28.5192C39.2552 28.6518 39.529 28.8755 39.7213 29.1618C39.9136 29.4482 40.0158 29.7845 40.0149 30.1282C40.0144 30.3561 39.9683 30.5816 39.8791 30.7918C39.79 31.0019 39.6596 31.1926 39.4955 31.3526L37.0167 28.8885ZM37.0167 28.8885L37.1217 28.9957C37.1218 28.9956 37.1218 28.9955 37.1219 28.9954L37.1222 28.9952L37.0167 28.8885ZM36.3354 27.4656C36.2922 27.495 36.2497 27.5255 36.2078 27.5569L36.258 27.7072C36.2996 27.675 36.3419 27.6438 36.3849 27.6137L36.3354 27.4656ZM19.2432 18.1619L30.6272 19.369L30.628 19.3691C31.0024 19.4068 31.3573 19.5516 31.6493 19.7855C31.9414 20.0194 32.1579 20.3322 32.2726 20.6854L32.2729 20.6865L34.9615 28.7514L28.7446 34.8967L20.5817 32.2383C20.2246 32.1216 19.9093 31.906 19.673 31.6175C19.4368 31.329 19.2895 30.9798 19.2484 30.6113C19.2484 30.6112 19.2484 30.6112 19.2484 30.6111L18.0271 19.3574L23.3064 24.5759C23.223 24.8676 23.2151 25.1761 23.2841 25.4726C23.3603 25.7998 23.5271 26.0993 23.7657 26.3377C23.9308 26.5077 24.1284 26.6433 24.347 26.7368C24.5659 26.8304 24.8015 26.8799 25.0399 26.8823C25.2783 26.8847 25.5149 26.84 25.7357 26.7508C25.9565 26.6616 26.1572 26.5297 26.326 26.3627C26.4947 26.1957 26.6281 25.997 26.7183 25.7781C26.8085 25.5593 26.8535 25.3247 26.8508 25.0883C26.848 24.852 26.7976 24.6185 26.7024 24.4018C26.6075 24.1857 26.4701 23.9906 26.2983 23.8278C26.0612 23.5903 25.7599 23.4256 25.4308 23.3532C25.1325 23.2876 24.8226 23.3003 24.5316 23.3894L19.2432 18.1619ZM31.2689 39.2721C31.2686 39.2724 31.2682 39.2727 31.2679 39.273L31.2668 39.2742L31.3722 39.3809L31.2689 39.2721ZM28.8821 39.3809L28.9883 39.2749C28.9878 39.2744 28.9874 39.2739 28.9869 39.2735C28.9864 39.273 28.9859 39.2725 28.9854 39.2721L28.8821 39.3809ZM28.988 37.0383C28.9881 37.0382 28.9882 37.0381 28.9883 37.038L28.8821 36.932L28.9876 37.0387L28.988 37.0383Z" fill="white" stroke="white" stroke-width="0.3"/>
</svg>
