<svg width="466" height="511" viewBox="0 0 466 511" fill="none" xmlns="http://www.w3.org/2000/svg">
<g clip-path="url(#clip0_111_37)">
<path fill-rule="evenodd" clip-rule="evenodd" d="M33.6331 415.964C36.4687 415.371 59.669 421.223 66.1653 421.871L66.0228 424.793C66.7291 423.843 66.7451 426.283 66.7451 422.587C74.327 422.587 111.995 428.366 126.335 428.483C137.077 428.57 145.059 429.753 158.016 429.912C162.266 429.965 163.562 430.713 168.271 430.694C176.419 430.661 182.13 431.442 189.625 431.415L287.531 429.98C290.999 429.693 295.021 430.071 298.553 429.966L319.11 428.449C326.726 428.251 332.96 427.213 339.736 427.001C346.204 426.798 353.662 426.133 360.122 425.313C366.278 424.531 373.1 423.971 379.997 423.114L399.514 420.38C401.796 418.762 412.088 417.549 415.67 416.825C417.709 416.413 429.839 412.587 431.434 413.761C439.304 410.365 454.079 406.938 458.941 399.055C461.793 394.429 464.308 380.376 465.268 373.753C466.261 366.895 466.262 350.852 465.161 343.556C461.527 319.47 458.573 315.683 447.901 296.598C444.501 293.987 443.747 290.753 439.884 288.797C439.559 289.574 439.232 290.289 438.834 291.32C438.037 293.382 438.784 291.25 438.13 293.415L435.394 300.157C435.327 300.331 435.265 300.529 435.198 300.709L429.949 312.008C424.475 318.419 428.352 320.002 426.835 328.717C423.689 328.869 424.266 328.736 422.119 327.701L415.154 324.371C414.567 324.119 414.106 323.987 412.995 323.561C412.305 323.296 411.226 322.925 410.464 322.424C408.953 321.43 409.861 322.161 408.652 320.754L408.677 321.263L403.137 319.467C394.658 316.606 370.433 305.793 366.184 305.184L366.289 324.218C365.141 331.588 367.695 338.981 367.622 345.946C370.434 348.738 370.695 357.658 372.283 364.195C373.215 368.035 374.328 369.926 375.718 372.571L386.948 384.999C387.056 385.106 387.215 385.255 387.325 385.36C387.479 385.508 387.94 385.909 388.095 386.054C388.7 386.62 388.961 386.905 389.582 387.483C393.296 390.941 401.328 397.602 401.253 403.211L396.54 404.331C391.712 405.541 396.013 404.466 389.929 403.62C388.211 407.272 388.88 406.848 384.009 407.918C375.696 409.743 379.217 410.643 360.896 413.493C328.592 418.517 327.012 405.995 315.592 393.015C311.106 387.917 310.41 385.938 307.396 382.059C305.727 379.909 304.928 379.329 303.147 376.849C301.334 374.323 296.661 368.648 294.999 365.078C290.342 363.825 269.907 339.754 266.092 338.043C244.845 365.321 207.609 377.126 171.23 374.726C151.686 373.436 146.441 368.089 134.958 361.773C119.119 353.061 112.871 322.485 111.704 303.11C107.474 301.226 77.5592 308.466 70.4852 309.498L54.8918 312.191C53.7644 312.351 53.4618 312.267 52.2587 312.547L50.1426 313.351C46.1183 315.642 42.4798 323.522 36.5585 323.319C33.7787 316.529 38.4076 314.598 35.4309 300.917C34.6675 297.409 33.7203 293.877 33.0249 290.8C31.9184 285.905 32.1333 281.861 29.2182 281.826C20.001 305.336 8.89688 326.772 2.574 353.299C-3.17259 377.408 -0.632268 402.563 24.0579 412.3C27.3174 413.586 30.1232 414.204 33.6332 415.964L33.6331 415.964Z" fill="#50B498"/>
<path fill-rule="evenodd" clip-rule="evenodd" d="M263.268 326.159C266.004 329.802 268.927 332.645 268.697 334.54C268.106 334.718 268.557 335.023 267.281 334.573C266.952 334.457 266.357 333.968 266.12 333.719C265.85 333.435 265.001 332.029 264.607 331.46C263.392 329.703 262.508 328.773 261.487 327.218C255.2 317.646 250.6 312.324 243.803 300.046C240.8 294.623 223.944 263.843 227.89 257.237C229.948 258.001 228.707 255.797 229.595 259.84L231.628 268.821C236.615 285.493 252.791 312.206 263.268 326.159H263.268ZM268.113 109.867C268.081 130.113 269.801 150.245 272.068 169.999C273.588 179.909 275.137 186.96 277.883 196C264.446 196.639 238.13 209.365 225.875 216.101C220.537 219.035 215.886 222.258 210.541 224.732L190.096 237.707C159.991 257.712 153.973 266.525 115.947 260.58C115.547 266.167 113.641 274.813 112.735 280.945C111.645 288.312 112.007 295.673 111.704 303.11C112.871 322.485 119.119 353.061 134.958 361.773C146.441 368.088 151.686 373.436 171.229 374.726C207.609 377.126 244.845 365.321 266.091 338.043C269.907 339.754 290.342 363.825 294.999 365.078C307.448 361.343 321.478 355.779 333.97 352.078C334.753 351.846 336.385 351.457 336.824 351.316C338.704 350.714 337.144 351.39 338.444 350.697C339.738 350.007 338.974 350.563 339.868 349.649C336.747 322.444 330.414 290.164 323.395 264.653C318.995 248.662 308.013 203.682 287.342 199.677L285.339 199.007C282.896 194.109 281.807 198.293 279.543 194.442C279.525 194.41 278.82 192.479 278.761 192.292C275.81 182.805 273.827 170.697 272.995 160.648C271.661 144.539 270.62 129.504 270.228 113.001L270.15 100.399C267.4 100.716 268.248 98.5114 267.952 103.974C267.875 105.392 268.107 108.257 268.113 109.867L268.113 109.867Z" fill="#261734"/>
<path fill-rule="evenodd" clip-rule="evenodd" d="M164.453 171.998L184.521 169.582C185.667 169.59 184.77 169.49 185.837 169.672C187.518 169.961 186.627 169.734 187.565 170.322C186.201 172.573 181.98 171.832 176.474 172.554C172.673 173.053 168.629 173.548 164.764 174.173L148.099 177.353C147.705 177.465 145.293 178.225 145.196 178.237C141.471 178.715 143.608 178.539 142.251 177.677L143.636 176.592C146.466 175.078 159.726 172.817 162.682 172.473L164.41 148.195C165.038 144.059 164.1 146.143 166.081 145.471C167.821 148.373 164.544 166.773 164.453 171.998L164.453 171.998ZM93.4252 198.774C92.2446 208.027 90.4479 214.2 90.9387 224.772C91.4324 235.408 93.6828 238.842 97.0949 246.706L98.1253 248.474C101.124 250.777 102.154 252.875 105.923 255.468C109.32 257.805 112.221 258.79 115.947 260.58C153.973 266.525 159.991 257.712 190.096 237.707L210.54 224.732C209.299 216.498 203.443 205.287 200.348 197.772C197.903 191.838 189.841 177.087 188.884 171.954C207.16 166.78 231.886 165.515 251.359 167.396C257.645 168.003 266.612 169.974 272.068 169.999C269.801 150.245 268.081 130.113 268.113 109.867L266.932 105.107L263.606 104.452C261.947 109.123 261.668 113.222 259.626 118.21C254.338 131.127 243.278 139.267 227.173 138.422C212.647 137.659 203.061 126.453 197.806 115.052C195.837 110.779 194.837 105.86 193.14 102.04C178.252 103.003 165.487 105.834 153.24 111.162C146.927 113.909 142.096 116.258 137.325 120.243C127.491 128.455 122.165 137.468 116 148.07C99.5253 176.401 103.933 170.267 93.4252 198.774V198.774Z" fill="#9CDBA6"/>
<path fill-rule="evenodd" clip-rule="evenodd" d="M224.71 74.0313C225.094 71.9799 231.083 72.2119 233.08 72.3981C235.828 72.6543 240.549 74.3161 240.728 76.33C240.983 79.2103 236.629 73.5795 229.573 74.3067C223.909 74.8902 227.105 75.4673 224.71 74.0313L224.71 74.0313ZM240.399 56.0213C241.809 56.9964 241.492 54.5261 242.299 61.6873C242.594 64.3077 242.369 66.6881 241.731 68.7174C238.36 69.1732 235.53 68.791 234.443 65.8865C236.668 64.8172 236.742 66.3132 240.286 66.8078L240.163 56.5855C240.196 56.4485 240.307 56.2031 240.399 56.0213ZM250.823 56.0853C246.943 55.8418 245.936 54.8338 244.855 53.1937C246.875 51.7425 248.082 54.1762 251.421 54.0974C254.863 54.0161 254.461 52.1665 257.148 53.4464C255.549 55.2197 254.555 56.3192 250.823 56.0853L250.823 56.0853ZM229.784 54.5292C227.673 55.3796 222.466 55.4409 220.009 52.6481C220.399 50.2956 223.202 52.7486 225.255 53.0424C227.845 53.4126 229.244 52.1261 231.891 51.6353C231.335 53.7466 232.091 53.6004 229.784 54.5292V54.5292ZM202.6 91.0327C204.33 91.5316 207.474 92.6803 208.954 93.5079C208.415 101.427 200.416 100.846 193.14 102.04C194.837 105.86 195.837 110.779 197.806 115.052C203.061 126.453 212.647 137.659 227.173 138.422C243.278 139.267 254.338 131.127 259.626 118.211C261.668 113.222 261.947 109.123 263.606 104.452C259.91 105.21 254.77 102.74 251.319 101.176C246.53 99.0065 244.584 97.6333 243.554 92.1672L243.527 86.4163C236.907 87.283 230.053 87.1889 224.392 84.9199C226.117 81.2304 226.622 85.3068 237.451 85.0091C243.86 84.8329 247.236 82.6227 250.391 79.5405C252.838 77.1501 255.902 72.9082 258.041 68.7901C260.173 64.6873 260.781 59.3819 263.151 55.587C266.75 63.3282 268.634 79.9712 268.13 90.0699C268.581 94.439 268.008 97.8355 269.318 99.5456L270.15 100.399L270.228 113.001C270.62 129.504 271.661 144.539 272.995 160.648C273.827 170.697 275.809 182.805 278.761 192.292C278.819 192.479 279.524 194.41 279.543 194.442C281.807 198.293 282.896 194.109 285.339 199.007C285.689 196.749 284.304 198.203 287.069 197.305C302.655 187.561 323.321 180.782 340.334 191.787C342.719 193.33 344.014 194.742 345.979 196.149C348.725 195.407 347.54 196.114 349.284 193.816C350.11 192.727 350.747 191.485 351.758 190.115C352.125 182.008 353.255 179.236 349.679 172.079C347.24 167.197 345.561 162.076 343.127 156.673C338.277 145.905 333.851 135.148 329.682 125.988L301.848 66.4256L311.038 66.6182C309.719 63.4704 311.737 66.2985 309.42 65.4424C307.479 64.7251 303.698 65.151 301.472 65.151L292.61 48.268C289.457 42.8374 286.515 37.4651 282.939 32.1931C277.971 24.8701 264.265 9.58238 256.211 6.31388C255.054 7.07418 254.687 6.28614 252.816 5.67134C250.432 4.88766 250.494 4.61956 248.19 5.21207C246.179 9.63743 250.526 13.3031 252.203 16.3617C248.353 14.4841 246.582 11.2331 241.013 11.2565C240.943 17.2896 245.079 20.782 247.579 23.9617C244.238 22.2458 241.031 19.9692 236.778 21.0516C237.143 27.8484 253.833 40.02 255.597 45.7158C238.453 49.4616 228.775 36.6228 217.871 36.1438C214.977 45.6312 215.126 52.6169 215.393 63.6796C215.509 68.4837 218.752 88.3315 218.05 90.6147C214.423 92.8625 207.252 91.9448 202.6 91.0327L202.6 91.0327ZM253.735 4.84302C253.614 5.86707 253.376 5.66004 254.38 5.53475L253.735 4.84302ZM255.006 5.57831L255.851 6.48601C255.851 5.30061 256.158 5.57831 255.006 5.57831Z" fill="#EC7979"/>
<path fill-rule="evenodd" clip-rule="evenodd" d="M34.9444 195.328C34.7356 198.611 34.6611 201.618 34.6728 204.908L35.532 212.039C35.5876 212.175 35.7222 212.44 35.8404 212.626C43.0738 211.918 66.1575 202.457 71.8308 202.991C75.243 203.062 83.7257 200.162 87.4712 199.063C90.3087 198.23 91.4832 197.677 93.4253 198.774C103.933 170.268 99.5254 176.401 116 148.071C122.165 137.468 127.491 128.455 137.325 120.243C142.096 116.258 146.927 113.91 153.24 111.163C165.487 105.835 178.252 103.004 193.14 102.04C200.416 100.846 208.415 101.428 208.954 93.5081C207.474 92.6804 204.33 91.5317 202.6 91.0328C192.582 90.0105 178.75 86.3733 169.437 83.6879L171.945 69.564C169.801 70.8534 146.188 72.6355 143.061 73.0316L84.8539 80.3094C62.4298 86.3779 49.9327 118.471 44.1897 138.217C39.043 155.913 36.7234 174.307 34.9444 195.328L34.9444 195.328Z" fill="#50B498"/>
<path fill-rule="evenodd" clip-rule="evenodd" d="M351.757 190.116C356.169 190.107 376.369 196.644 381.479 198.387C386.521 200.105 391.122 201.023 396.553 202.71C400.477 203.93 407.848 207.884 411.845 205.999C411.845 200.497 414.547 185.439 414.79 177.678C414.901 174.129 415.361 174.28 415.527 171.061L416.286 148.233C416.281 144.805 415.89 143.9 415.634 141.53C415.344 138.834 415.615 136.609 415.223 133.85C413.345 120.61 409.524 103.292 400.979 93.6634C396.98 89.1578 394.882 86.0989 388.731 82.3703C374.227 73.5774 358.001 70.6117 340.431 68.1329C335.216 67.3972 315.836 64.7658 311.038 66.6183L301.848 66.4257L329.682 125.989C333.851 135.148 338.277 145.905 343.127 156.673C345.561 162.076 347.239 167.197 349.679 172.079C353.255 179.237 352.124 182.008 351.757 190.116Z" fill="#50B498"/>
<path fill-rule="evenodd" clip-rule="evenodd" d="M345.979 196.149C350.722 202.78 354.79 205.079 359.413 216.825C362.778 225.376 362.675 236.219 364.055 245.841C373.947 247.097 411.277 250.328 416.148 254.901C415.211 255.718 418.016 256.652 410.547 254.709C408.704 254.23 406.371 253.818 404.505 253.452C395.557 251.698 371.635 248.056 364.103 248.029L365.36 303.444C368.93 303.76 383.148 309.933 387.45 311.681C391.021 313.132 394.539 314.471 397.88 315.806C399.929 316.624 401.407 317.247 403.151 317.947C405.878 319.042 406.809 319.28 408.677 321.263L408.652 320.754C414.075 321.703 420.631 326.836 425.497 326.744C425.985 322.451 425.096 317.178 426.711 313.833C427.493 312.214 428.616 311.165 429.655 309.491C430.593 307.98 431.314 306.293 432.145 304.647L438.224 289.285C438.601 288.366 439.981 285.647 440.543 284.692C442.428 279.621 443.652 274.147 445.269 268.45L452.915 234.906C453.972 231.492 455.139 231.491 457.06 228.753C459.932 224.661 461.058 219.849 454.456 218.931C443.058 217.345 444.354 219.191 434.967 215.611C429.984 213.711 416.794 208.243 411.846 207.831V205.999C407.849 207.884 400.478 203.929 396.554 202.71C391.123 201.023 386.521 200.105 381.48 198.387C376.369 196.644 356.169 190.107 351.758 190.115C350.747 191.485 350.11 192.727 349.284 193.816C347.541 196.114 348.726 195.407 345.979 196.149V196.149Z" fill="#468585"/>
<path fill-rule="evenodd" clip-rule="evenodd" d="M71.8307 202.991C70.302 204.802 69.9747 204.485 67.2328 205.23C57.9341 207.757 40.8881 213.163 33.6329 214.543C27.3167 215.634 26.1764 214.551 20.6663 212.701C17.0346 211.482 11.2855 209.302 7.14331 209.302C7.14331 219.629 17.0834 220.888 19.6721 232.082L28.5761 271.723C29.5266 275.246 30.2479 278.233 29.2179 281.826C32.133 281.861 31.9182 285.905 33.0247 290.8C33.7201 293.877 34.6673 297.408 35.4307 300.917C38.4073 314.598 33.7785 316.528 36.5582 323.319C42.4796 323.522 46.1181 315.642 50.1424 313.351L52.2584 312.547C53.4615 312.266 53.7642 312.351 54.8915 312.191L70.485 309.498C77.5589 308.466 107.473 301.226 111.704 303.11C112.007 295.672 111.645 288.312 112.734 280.945C113.641 274.813 115.546 266.167 115.947 260.58C112.221 258.79 109.32 257.805 105.923 255.468C102.154 252.875 101.124 250.776 98.1253 248.474C97.5452 248.746 56.6547 259.292 54.4381 257.843C55.7544 255.936 60.2706 255.478 64.1099 254.535C67.7317 253.645 71.2717 252.769 74.8088 251.899C82.1381 250.095 90.2088 248.831 97.0949 246.706C93.6827 238.842 91.4324 235.408 90.9387 224.772C90.4479 214.2 92.2446 208.027 93.4252 198.774C91.4831 197.677 90.3085 198.23 87.4711 199.063C83.7256 200.162 75.2429 203.062 71.8307 202.991L71.8307 202.991Z" fill="#60858B"/>
<path fill-rule="evenodd" clip-rule="evenodd" d="M287.069 197.305C310.674 203.683 319.623 242.801 325.129 262.979C330.495 282.643 340.04 329.895 342.038 349.868L340.97 349.685C340.233 351.288 340.575 352.303 341.387 354.711C345.342 366.442 349.405 377.073 355.428 387.795C358.605 393.451 362.411 393.635 371.534 398.157C374.598 399.676 377.102 400.923 380.373 402.565C386.686 405.734 387.115 406.975 388.757 404.936C387.939 403.435 382.525 401.484 380.899 400.629L364.084 392.368C359.231 390.05 359.437 390.59 356.915 386.284C351.321 376.732 345.229 361.36 342.038 349.868C351.087 348.793 357.784 345.886 367.622 345.946C367.695 338.981 365.141 331.588 366.289 324.218C364.507 320.244 365.134 308.739 365.36 303.444L364.103 248.029C371.635 248.056 395.557 251.698 404.505 253.452C406.371 253.818 408.704 254.231 410.547 254.709C418.016 256.652 415.211 255.718 416.148 254.901C411.277 250.328 373.947 247.097 364.055 245.841C362.675 236.219 362.778 225.376 359.413 216.825C354.79 205.08 350.722 202.78 345.979 196.149C344.014 194.742 342.719 193.33 340.334 191.787C323.321 180.782 302.655 187.561 287.069 197.305L287.069 197.305Z" fill="#261734"/>
<path fill-rule="evenodd" clip-rule="evenodd" d="M171.945 69.5638L169.437 83.6877C178.75 86.3731 192.582 90.0103 202.6 91.0326C207.252 91.9447 214.423 92.8625 218.05 90.6146C218.752 88.3314 215.509 68.4836 215.393 63.6795C215.125 52.6168 214.977 45.6311 217.871 36.1437C228.775 36.6228 238.453 49.4615 255.597 45.7157C253.833 40.0199 237.143 27.8483 236.778 21.0515C241.031 19.9691 244.238 22.2457 247.579 23.9616C245.079 20.782 240.943 17.2895 241.013 11.2564C246.582 11.233 248.353 14.484 252.203 16.3616C250.526 13.303 246.179 9.63731 248.19 5.21197C250.494 4.61946 250.432 4.88756 252.816 5.67125C254.687 6.28604 255.054 7.07408 256.211 6.31378L255.851 6.48596L255.006 5.57826L254.38 5.53469C253.376 5.65999 253.614 5.86701 253.735 4.84296C244.41 0.247683 230.746 -0.85747 219.971 0.604804C198.719 3.4891 187.026 18.9398 179.633 38.2462C177.176 44.6635 172.038 61.8044 171.945 69.5638H171.945Z" fill="#261734"/>
<path fill-rule="evenodd" clip-rule="evenodd" d="M342.038 349.867C345.229 361.36 351.32 376.732 356.915 386.284C359.437 390.59 359.231 390.05 364.084 392.368L380.899 400.629C382.525 401.484 387.939 403.435 388.757 404.936C387.115 406.975 386.686 405.734 380.373 402.564C377.102 400.922 374.598 399.676 371.534 398.157C362.411 393.634 358.605 393.451 355.427 387.794C349.405 377.073 345.342 366.442 341.387 354.711C340.575 352.303 340.233 351.288 340.97 349.685L339.868 349.649C338.974 350.563 339.738 350.007 338.444 350.697C337.144 351.39 338.704 350.714 336.824 351.316C336.385 351.457 334.753 351.846 333.97 352.078C321.478 355.779 307.448 361.343 294.999 365.078C296.661 368.648 301.333 374.323 303.147 376.849C304.928 379.329 305.726 379.909 307.396 382.059C310.41 385.938 311.106 387.917 315.592 393.015C327.011 405.995 328.592 418.517 360.896 413.493C379.216 410.643 375.696 409.743 384.009 407.918C388.88 406.848 388.211 407.272 389.929 403.62C396.013 404.466 391.712 405.541 396.54 404.331L401.252 403.211C401.328 397.602 393.296 390.941 389.582 387.483C388.961 386.905 388.7 386.62 388.094 386.054C387.939 385.909 387.479 385.508 387.325 385.36C387.215 385.255 387.056 385.106 386.948 384.999L375.718 372.571C374.328 369.926 373.215 368.035 372.283 364.195C370.695 357.658 370.434 348.738 367.622 345.946C357.784 345.885 351.087 348.793 342.038 349.867H342.038Z" fill="#EC7979"/>
<path fill-rule="evenodd" clip-rule="evenodd" d="M210.541 224.732C215.887 222.258 220.537 219.035 225.875 216.101C238.13 209.365 264.446 196.639 277.883 196C275.137 186.96 273.588 179.909 272.068 169.999C266.612 169.974 257.646 168.003 251.359 167.396C231.886 165.515 207.16 166.78 188.884 171.955C189.841 177.087 197.903 191.838 200.348 197.773C203.443 205.287 209.299 216.498 210.541 224.732V224.732Z" fill="#EC7979"/>
<path fill-rule="evenodd" clip-rule="evenodd" d="M399.513 420.38C399.099 424.813 402.386 439.708 403.444 444.958C406.78 461.509 409.784 475.804 414.695 491.814C415.749 495.251 423.224 519.365 428.829 507.96C433.834 497.775 433.156 452.412 433.185 439.502L431.433 413.761C429.839 412.587 417.709 416.413 415.67 416.825C412.088 417.549 401.796 418.762 399.513 420.38H399.513Z" fill="#261734"/>
<path fill-rule="evenodd" clip-rule="evenodd" d="M66.0227 424.793L66.1652 421.871C59.6689 421.223 36.4687 415.371 33.633 415.964C33.633 445.926 31.9168 460.188 34.313 491.041C34.8814 498.359 35.0411 509.255 40.9913 510.843C50.9887 510.843 65.9739 431.681 66.0227 424.793H66.0227Z" fill="#261734"/>
<path fill-rule="evenodd" clip-rule="evenodd" d="M243.554 92.1674C252.64 92.3339 259.864 92.1517 268.13 90.0701C268.634 79.9714 266.75 63.3284 263.151 55.5872C260.781 59.3821 260.173 64.6874 258.041 68.7903C255.902 72.9084 252.838 77.1503 250.391 79.5407C247.236 82.6228 243.86 84.8331 237.451 85.0092C226.622 85.307 226.117 81.2306 224.392 84.92C230.053 87.1891 236.907 87.2831 243.527 86.4165L243.554 92.1674H243.554Z" fill="#261734"/>
<path fill-rule="evenodd" clip-rule="evenodd" d="M285.34 199.007L287.342 199.677C308.013 203.682 318.995 248.662 323.395 264.653C330.414 290.164 336.747 322.444 339.868 349.649L340.97 349.685L342.038 349.868C340.04 329.895 330.495 282.643 325.129 262.979C319.623 242.801 310.674 203.683 287.069 197.305C284.305 198.203 285.689 196.749 285.34 199.007H285.34Z" fill="#ECD8D4"/>
<path fill-rule="evenodd" clip-rule="evenodd" d="M243.554 92.1671C244.584 97.6332 246.53 99.0065 251.319 101.176C254.77 102.74 259.91 105.21 263.606 104.452L266.932 105.107L268.113 109.867C268.107 108.257 267.875 105.392 267.952 103.974C268.247 98.5113 267.4 100.716 270.15 100.399L269.318 99.5456C268.008 97.8354 268.581 94.4389 268.13 90.0698C259.864 92.1515 252.64 92.3337 243.554 92.1671V92.1671Z" fill="#50B498"/>
<path fill-rule="evenodd" clip-rule="evenodd" d="M268.697 334.54C268.926 332.645 266.003 329.802 263.268 326.159C252.791 312.206 236.615 285.493 231.628 268.821L229.595 259.84C228.707 255.797 229.947 258.001 227.89 257.237C223.944 263.843 240.8 294.623 243.802 300.046C250.6 312.324 255.2 317.646 261.486 327.219C262.507 328.773 263.392 329.703 264.607 331.46C265.001 332.029 265.85 333.435 266.12 333.719C266.357 333.968 266.952 334.457 267.281 334.573C268.557 335.023 268.106 334.718 268.697 334.54H268.697Z" fill="#ECD8D4"/>
<path fill-rule="evenodd" clip-rule="evenodd" d="M164.453 171.999C164.544 166.773 167.821 148.374 166.081 145.471C164.1 146.143 165.038 144.059 164.41 148.195L162.682 172.473C159.726 172.817 146.466 175.078 143.636 176.593L142.251 177.677C143.608 178.539 141.471 178.715 145.196 178.237C145.294 178.225 147.705 177.465 148.099 177.353L164.764 174.173C168.629 173.548 172.673 173.053 176.475 172.555C181.98 171.832 186.201 172.573 187.565 170.323C186.627 169.734 187.518 169.961 185.837 169.673C184.77 169.49 185.667 169.59 184.521 169.582L164.453 171.999L164.453 171.999Z" fill="#261734"/>
<path fill-rule="evenodd" clip-rule="evenodd" d="M408.652 320.753C409.861 322.161 408.953 321.43 410.464 322.424C411.226 322.925 412.305 323.295 412.996 323.56C414.106 323.987 414.567 324.119 415.154 324.371L422.119 327.701C424.267 328.736 423.689 328.868 426.835 328.717C428.352 320.001 424.475 318.418 429.949 312.008L435.198 300.709C435.265 300.529 435.327 300.331 435.394 300.157L438.13 293.415C438.784 291.25 438.037 293.382 438.834 291.32C439.233 290.289 439.559 289.574 439.884 288.797C443.747 290.753 444.501 293.987 447.901 296.597C446.858 295.03 445.219 293.022 443.784 291.396C443.151 290.677 441.861 289.258 441.428 288.559C440.203 286.582 440.543 287.946 440.543 284.692C439.981 285.647 438.601 288.366 438.224 289.285L432.145 304.646C431.314 306.293 430.593 307.98 429.655 309.491C428.616 311.165 427.493 312.214 426.711 313.833C425.096 317.178 425.985 322.451 425.497 326.744C420.631 326.836 414.075 321.703 408.652 320.753L408.652 320.753Z" fill="#468585"/>
<path fill-rule="evenodd" clip-rule="evenodd" d="M98.1254 248.474L97.095 246.706C90.209 248.831 82.1382 250.095 74.8089 251.899C71.2719 252.769 67.7318 253.645 64.1101 254.535C60.2707 255.478 55.7546 255.936 54.4382 257.843C56.6548 259.292 97.5454 248.746 98.1254 248.474V248.474Z" fill="#261734"/>
<path fill-rule="evenodd" clip-rule="evenodd" d="M366.289 324.218L366.184 305.184C370.433 305.793 394.658 316.606 403.137 319.467L408.677 321.263C406.809 319.28 405.878 319.042 403.151 317.947C401.407 317.247 399.929 316.624 397.88 315.806C394.539 314.471 391.021 313.132 387.45 311.681C383.148 309.933 368.93 303.76 365.36 303.444C365.134 308.739 364.507 320.244 366.289 324.218L366.289 324.218Z" fill="#468585"/>
<path fill-rule="evenodd" clip-rule="evenodd" d="M33.6331 214.543C40.8883 213.163 57.9342 207.757 67.2329 205.23C69.9749 204.485 70.3022 204.802 71.8308 202.991C66.1575 202.457 43.0738 211.918 35.8404 212.626C35.7222 212.44 35.5876 212.175 35.532 212.039L34.6728 204.908C34.6611 201.618 34.7356 198.611 34.9444 195.328C34.0963 197.036 34.3391 197.204 34.3395 199.704C34.3397 201.431 34.3989 203.186 34.3929 204.914C34.3783 209.084 33.6331 210.032 33.6331 214.543V214.543Z" fill="#468585"/>
<path fill-rule="evenodd" clip-rule="evenodd" d="M242.299 61.6873C241.492 54.526 241.809 56.9963 240.399 56.0212C240.307 56.203 240.197 56.4484 240.164 56.5854L240.287 66.8077C236.742 66.3132 236.668 64.8171 234.443 65.8864C235.53 68.7909 238.361 69.1731 241.731 68.7174C242.37 66.688 242.594 64.3076 242.299 61.6873Z" fill="#261734"/>
<path fill-rule="evenodd" clip-rule="evenodd" d="M233.08 72.3981C231.083 72.2119 225.094 71.9799 224.71 74.0313C227.105 75.4673 223.909 74.8902 229.573 74.3067C236.629 73.5795 240.983 79.2103 240.728 76.33C240.55 74.3161 235.828 72.6543 233.08 72.3981L233.08 72.3981Z" fill="#261734"/>
<path fill-rule="evenodd" clip-rule="evenodd" d="M220.009 52.648C222.466 55.4408 227.673 55.3795 229.784 54.5291C232.091 53.6004 231.335 53.7465 231.891 51.6353C229.244 52.126 227.845 53.4125 225.255 53.0423C223.202 52.7485 220.399 50.2956 220.009 52.648V52.648Z" fill="#261734"/>
<path fill-rule="evenodd" clip-rule="evenodd" d="M244.855 53.1938C245.937 54.8339 246.943 55.8419 250.823 56.0854C254.555 56.3193 255.549 55.2198 257.149 53.4465C254.461 52.1667 254.863 54.0163 251.422 54.0976C248.082 54.1764 246.875 51.7426 244.855 53.1938L244.855 53.1938Z" fill="#261734"/>
</g>
<defs>
<clipPath id="clip0_111_37">
<rect width="466" height="511" fill="white"/>
</clipPath>
</defs>
</svg>
